<?xml version="1.0" standalone="no"?>
<!DOCTYPE svg PUBLIC "-//W3C//DTD SVG 20010904//EN"
 "http://www.w3.org/TR/2001/REC-SVG-20010904/DTD/svg10.dtd">
<svg version="1.0" xmlns="http://www.w3.org/2000/svg"
 width="260.000000pt" height="260.000000pt" viewBox="0 0 260.000000 260.000000"
 preserveAspectRatio="xMidYMid meet">
<metadata>
Created by potrace 1.14, written by Peter Selinger 2001-2017
</metadata>
<g transform="translate(0.000000,260.000000) scale(0.100000,-0.100000)"
fill="#000000" stroke="none">
<path d="M1290 2582 c0 -4 -10 -18 -23 -32 -12 -14 -52 -63 -87 -110 -36 -47
-68 -87 -71 -90 -10 -8 -233 -320 -264 -370 -15 -24 -34 -51 -42 -58 -7 -7
-13 -19 -13 -27 0 -7 -4 -15 -8 -17 -26 -10 -242 -396 -305 -543 -45 -105 -89
-237 -82 -244 4 -3 62 -6 130 -6 l124 -1 17 46 c37 101 153 339 185 381 l16
22 433 1 432 1 19 -23 c26 -34 137 -253 175 -347 l32 -79 126 -1 c86 -1 126 3
126 10 0 42 -75 235 -147 379 -105 209 -355 599 -540 841 -5 6 -28 37 -53 70
-25 33 -47 62 -50 65 -3 3 -29 35 -59 73 -48 61 -71 80 -71 59z m127 -555 c59
-84 120 -170 136 -192 l27 -40 -134 -3 c-74 -1 -199 -1 -277 0 l-141 3 53 80
c29 44 58 86 64 92 5 7 42 57 80 112 39 55 73 100 77 101 4 0 56 -69 115 -153z"/>
<path d="M375 888 c8 -115 18 -166 46 -249 34 -101 95 -210 161 -290 63 -76
176 -179 197 -179 6 0 11 -4 11 -9 0 -14 179 -98 255 -120 102 -28 147 -34
270 -33 496 3 898 394 917 892 l3 75 -128 3 -127 3 0 -68 c-1 -203 -120 -416
-302 -541 -186 -128 -443 -148 -654 -52 -111 50 -207 130 -275 228 -36 50 -83
145 -94 187 -5 17 -10 37 -12 45 -9 35 -20 147 -16 173 l4 27 -131 0 -132 0 7
-92z"/>
</g>
</svg>
